<svg xmlns="http://www.w3.org/2000/svg" xmlns:xlink="http://www.w3.org/1999/xlink" width="1254" zoomAndPan="magnify" viewBox="0 0 940.5 95.999999" height="128" preserveAspectRatio="xMidYMid meet" version="1.0"><defs><clipPath id="bc69b740be"><path d="M 934 89 L 940 89 L 940 95.972656 L 934 95.972656 Z M 934 89 " clip-rule="nonzero"/></clipPath><clipPath id="f6254ddc45"><path d="M 0 0.0273438 L 6 0.0273438 L 6 7 L 0 7 Z M 0 0.0273438 " clip-rule="nonzero"/></clipPath></defs><path fill="#000000" d="M 25.757812 24.824219 L 25.757812 69.796875 C 25.757812 72.675781 27.074219 73.757812 28.632812 73.757812 C 30.074219 73.757812 31.394531 72.675781 31.394531 69.796875 L 31.394531 49.53125 L 50.582031 49.53125 L 50.582031 68.359375 C 50.582031 82.75 42.066406 90.425781 28.273438 90.425781 C 14.601562 90.425781 6.566406 82.992188 6.566406 68.359375 L 6.566406 26.140625 C 6.566406 11.507812 14.601562 4.195312 28.273438 4.195312 C 42.066406 4.195312 50.582031 11.871094 50.582031 26.140625 L 50.582031 45.09375 L 31.394531 45.09375 L 31.394531 24.824219 C 31.394531 21.824219 30.074219 20.746094 28.632812 20.746094 C 27.074219 20.746094 25.757812 21.824219 25.757812 24.824219 Z M 56.898438 5.273438 L 76.089844 5.273438 L 76.089844 72.558594 L 87.84375 72.558594 L 87.84375 89.226562 L 56.898438 89.226562 Z M 99.890625 5.152344 L 129.753906 5.152344 L 136.949219 89.226562 L 117.761719 89.226562 L 116.800781 70.160156 L 112.484375 70.160156 L 111.523438 89.226562 L 92.332031 89.226562 Z M 113.203125 53.488281 L 115.960938 53.488281 L 115.242188 38.375 L 114.042969 38.375 Z M 142.453125 5.152344 L 163.921875 5.152344 C 177.835938 5.152344 185.992188 12.589844 185.992188 27.699219 L 185.992188 28.179688 C 185.992188 41.972656 179.273438 48.808594 173.757812 49.167969 L 173.757812 50.488281 C 179.152344 50.847656 185.992188 58.523438 185.992188 71.117188 L 185.992188 72.078125 C 185.992188 78.914062 186.109375 84.191406 187.191406 89.226562 L 168.121094 89.226562 C 167.039062 84.070312 166.921875 78.433594 166.921875 71.957031 L 166.921875 62.242188 C 166.921875 59.246094 166.082031 58.164062 163.683594 58.164062 L 161.644531 58.164062 L 161.644531 89.226562 L 142.453125 89.226562 Z M 161.644531 21.824219 L 161.644531 41.492188 L 163.683594 41.492188 C 166.082031 41.492188 166.921875 40.292969 166.921875 37.296875 L 166.921875 25.902344 C 166.921875 23.023438 166.082031 21.824219 163.683594 21.824219 Z M 192.550781 5.273438 L 211.738281 5.273438 L 211.738281 89.226562 L 192.550781 89.226562 Z M 259.546875 5.273438 L 259.546875 21.945312 L 248.035156 21.945312 L 248.035156 89.226562 L 228.84375 89.226562 L 228.84375 21.945312 L 217.210938 21.945312 L 217.210938 5.273438 Z M 264.140625 5.273438 L 283.332031 5.273438 L 285.371094 39.695312 L 286.691406 39.695312 L 288.609375 5.273438 L 307.800781 5.273438 L 295.445312 66.199219 L 295.445312 89.226562 L 276.257812 89.226562 L 276.257812 66.199219 Z M 385.769531 41.613281 L 385.769531 55.527344 L 368.859375 55.527344 L 368.859375 73.035156 L 353.867188 73.035156 L 353.867188 55.527344 L 336.835938 55.527344 L 336.835938 41.613281 L 353.867188 41.613281 L 353.867188 24.101562 L 368.859375 24.101562 L 368.859375 41.613281 Z M 415.59375 5.273438 L 437.0625 5.273438 C 451.09375 5.273438 459.132812 14.507812 459.132812 35.015625 L 459.132812 35.257812 C 459.132812 56.367188 451.933594 63.441406 436.824219 63.441406 L 434.785156 63.441406 L 434.785156 89.226562 L 415.59375 89.226562 Z M 434.785156 21.945312 L 434.785156 46.769531 L 436.824219 46.769531 C 439.339844 46.769531 440.0625 45.570312 440.0625 42.332031 L 440.0625 26.621094 C 440.0625 23.144531 439.339844 21.945312 436.824219 21.945312 Z M 495.8125 21.945312 L 484.058594 21.945312 L 484.058594 36.816406 L 495.574219 36.816406 L 495.574219 53.488281 L 484.058594 53.488281 L 484.058594 72.558594 L 495.933594 72.558594 L 495.933594 89.226562 L 464.871094 89.226562 L 464.871094 5.273438 L 495.8125 5.273438 Z M 501.96875 5.152344 L 523.433594 5.152344 C 537.347656 5.152344 545.503906 12.589844 545.503906 27.699219 L 545.503906 28.179688 C 545.503906 41.972656 538.789062 48.808594 533.269531 49.167969 L 533.269531 50.488281 C 538.667969 50.847656 545.503906 58.523438 545.503906 71.117188 L 545.503906 72.078125 C 545.503906 78.914062 545.625 84.191406 546.703125 89.226562 L 527.632812 89.226562 C 526.554688 84.070312 526.433594 78.433594 526.433594 71.957031 L 526.433594 62.242188 C 526.433594 59.246094 525.59375 58.164062 523.195312 58.164062 L 521.15625 58.164062 L 521.15625 89.226562 L 501.96875 89.226562 Z M 521.15625 21.824219 L 521.15625 41.492188 L 523.195312 41.492188 C 525.59375 41.492188 526.433594 40.292969 526.433594 37.296875 L 526.433594 25.902344 C 526.433594 23.023438 525.59375 21.824219 523.195312 21.824219 Z M 583.007812 21.945312 L 571.253906 21.945312 L 571.253906 38.976562 L 582.289062 38.976562 L 582.289062 55.644531 L 571.253906 55.644531 L 571.253906 89.226562 L 552.0625 89.226562 L 552.0625 5.273438 L 583.007812 5.273438 Z M 588.453125 26.140625 C 588.453125 11.507812 596.488281 4.074219 610.164062 4.074219 C 623.957031 4.074219 632.472656 11.75 632.472656 26.140625 L 632.472656 68.238281 C 632.472656 82.75 623.957031 90.425781 610.164062 90.425781 C 596.488281 90.425781 588.453125 82.871094 588.453125 68.238281 Z M 607.644531 24.703125 L 607.644531 69.796875 C 607.644531 72.675781 608.964844 73.757812 610.402344 73.757812 C 611.960938 73.757812 613.28125 72.675781 613.28125 69.796875 L 613.28125 24.703125 C 613.28125 21.703125 611.960938 20.746094 610.402344 20.746094 C 608.964844 20.746094 607.644531 21.703125 607.644531 24.703125 Z M 638.789062 5.152344 L 660.257812 5.152344 C 674.167969 5.152344 682.324219 12.589844 682.324219 27.699219 L 682.324219 28.179688 C 682.324219 41.972656 675.609375 48.808594 670.089844 49.167969 L 670.089844 50.488281 C 675.488281 50.847656 682.324219 58.523438 682.324219 71.117188 L 682.324219 72.078125 C 682.324219 78.914062 682.445312 84.191406 683.523438 89.226562 L 664.453125 89.226562 C 663.375 84.070312 663.253906 78.433594 663.253906 71.957031 L 663.253906 62.242188 C 663.253906 59.246094 662.414062 58.164062 660.015625 58.164062 L 657.976562 58.164062 L 657.976562 89.226562 L 638.789062 89.226562 Z M 657.976562 21.824219 L 657.976562 41.492188 L 660.015625 41.492188 C 662.414062 41.492188 663.253906 40.292969 663.253906 37.296875 L 663.253906 25.902344 C 663.253906 23.023438 662.414062 21.824219 660.015625 21.824219 Z M 688.882812 5.273438 L 713.589844 5.273438 L 715.988281 55.886719 L 717.308594 55.886719 L 719.707031 5.273438 L 744.296875 5.273438 L 744.296875 89.226562 L 726.664062 89.226562 L 728.824219 38.976562 L 727.503906 38.976562 L 722.585938 89.226562 L 710.59375 89.226562 L 705.554688 38.976562 L 704.238281 38.976562 L 706.515625 89.226562 L 688.882812 89.226562 Z M 757.292969 5.152344 L 787.15625 5.152344 L 794.351562 89.226562 L 775.164062 89.226562 L 774.203125 70.160156 L 769.886719 70.160156 L 768.925781 89.226562 L 749.738281 89.226562 Z M 770.605469 53.488281 L 773.363281 53.488281 L 772.644531 38.375 L 771.445312 38.375 Z M 826 5.273438 L 845.191406 5.273438 L 845.191406 89.226562 L 824.320312 89.226562 L 815.804688 38.976562 L 814.726562 38.976562 L 818.925781 89.226562 L 799.734375 89.226562 L 799.734375 5.273438 L 820.605469 5.273438 L 829.597656 55.886719 L 830.679688 55.886719 Z M 870.660156 24.824219 L 870.660156 69.796875 C 870.660156 72.675781 871.980469 73.757812 873.539062 73.757812 C 874.980469 73.757812 876.300781 72.675781 876.300781 69.796875 L 876.300781 49.53125 L 895.488281 49.53125 L 895.488281 68.359375 C 895.488281 82.75 886.972656 90.425781 873.179688 90.425781 C 859.507812 90.425781 851.472656 82.992188 851.472656 68.359375 L 851.472656 26.140625 C 851.472656 11.507812 859.507812 4.195312 873.179688 4.195312 C 886.972656 4.195312 895.488281 11.871094 895.488281 26.140625 L 895.488281 45.09375 L 876.300781 45.09375 L 876.300781 24.824219 C 876.300781 21.824219 874.980469 20.746094 873.539062 20.746094 C 871.980469 20.746094 870.660156 21.824219 870.660156 24.824219 Z M 932.75 21.945312 L 920.996094 21.945312 L 920.996094 36.816406 L 932.511719 36.816406 L 932.511719 53.488281 L 920.996094 53.488281 L 920.996094 72.558594 L 932.871094 72.558594 L 932.871094 89.226562 L 901.808594 89.226562 L 901.808594 5.273438 L 932.75 5.273438 Z M 932.75 21.945312 " fill-opacity="1" fill-rule="nonzero"/><g clip-path="url(#bc69b740be)"><path fill="#000000" d="M 936.574219 93.402344 L 934.003906 93.402344 L 934.003906 92.546875 L 936.574219 92.546875 L 936.574219 89.976562 L 937.429688 89.976562 L 937.429688 92.546875 L 940 92.546875 L 940 93.402344 L 937.429688 93.402344 L 937.429688 95.972656 L 936.574219 95.972656 Z M 936.574219 93.402344 " fill-opacity="0.4" fill-rule="nonzero"/></g><g clip-path="url(#f6254ddc45)"><path fill="#000000" d="M 2.570312 3.453125 L 0 3.453125 L 0 2.59375 L 2.570312 2.59375 L 2.570312 0.0273438 L 3.425781 0.0273438 L 3.425781 2.59375 L 5.996094 2.59375 L 5.996094 3.453125 L 3.425781 3.453125 L 3.425781 6.023438 L 2.570312 6.023438 Z M 2.570312 3.453125 " fill-opacity="0.4" fill-rule="nonzero"/></g></svg>